<svg width="298" height="298" viewBox="0 0 298 298" fill="none" xmlns="http://www.w3.org/2000/svg">
<g clip-path="url(#clip0_2_34)">
<mask id="mask0_2_34" style="mask-type:luminance" maskUnits="userSpaceOnUse" x="0" y="0" width="298" height="298">
<path d="M298 0H0V298H298V0Z" fill="white"/>
</mask>
<g mask="url(#mask0_2_34)">
<path d="M149 298C66.7138 298 0 231.286 0 149C0 66.7138 66.7138 0 149 0C231.286 0 298 66.7138 298 149C298 231.286 231.286 298 149 298Z" fill="white"/>
<path d="M149 291.335C70.4005 291.335 6.66553 227.6 6.66553 149C6.66553 70.3709 70.4005 6.66547 149 6.66547C227.6 6.66547 291.335 70.4004 291.335 149C291.335 227.6 227.6 291.335 149 291.335Z" fill="#C0E5F2"/>
<path d="M149 275.969C78.865 275.969 22.0315 219.135 22.0315 149C22.0315 78.865 78.865 22.0315 149 22.0315C219.135 22.0315 275.969 78.865 275.969 149C275.969 219.135 219.135 275.969 149 275.969Z" fill="#6BBE4A"/>
</g>
<path d="M120.598 41.0546L149.413 116.321L178.228 41.0546L165.546 120.657L228.13 69.8696L177.343 132.454L256.945 119.772L181.679 148.587L256.945 177.402L177.343 164.72L228.13 227.334L165.546 176.547L178.228 256.149L149.413 180.853L120.598 256.149L133.28 176.547L70.6954 227.334L121.483 164.72L41.8805 177.402L117.147 148.587L41.8805 119.772L121.483 132.454L70.6954 69.8696L133.28 120.657L120.598 41.0546Z" fill="#C2E76B"/>
<mask id="mask1_2_34" style="mask-type:luminance" maskUnits="userSpaceOnUse" x="0" y="0" width="298" height="298">
<path d="M298 0H0V298H298V0Z" fill="white"/>
</mask>
<g mask="url(#mask1_2_34)">
<path d="M149.413 240.37C153.394 240.37 156.639 237.126 156.639 233.144C156.639 229.163 149.413 218.044 149.413 218.044C149.413 218.044 142.187 229.163 142.187 233.144C142.187 237.126 145.431 240.37 149.413 240.37Z" fill="#6D6E71"/>
<path d="M241.166 148.587C241.166 144.606 237.922 141.361 233.941 141.361C229.959 141.361 218.84 148.587 218.84 148.587C218.84 148.587 229.959 155.813 233.941 155.813C237.922 155.813 241.166 152.569 241.166 148.587Z" fill="#6D6E71"/>
<path d="M149.413 56.8336C145.431 56.8336 142.187 60.0778 142.187 64.0594C142.187 68.041 149.413 79.16 149.413 79.16C149.413 79.16 156.639 68.041 156.639 64.0594C156.639 60.0778 153.394 56.8336 149.413 56.8336Z" fill="#6D6E71"/>
<path d="M57.6593 148.587C57.6593 152.569 60.9036 155.813 64.8852 155.813C68.8667 155.813 79.9857 148.587 79.9857 148.587C79.9857 148.587 68.8667 141.361 64.8852 141.361C60.9036 141.361 57.6593 144.606 57.6593 148.587Z" fill="#6D6E71"/>
<path d="M228.868 102.725C226.862 99.2744 222.438 98.0651 218.987 100.071C215.537 102.076 209.52 113.874 209.52 113.874C209.52 113.874 222.763 114.581 226.213 112.576C229.664 110.57 230.844 106.146 228.868 102.696" fill="#6D6E71"/>
<path d="M103.521 69.1322C100.071 71.1378 98.8614 75.5618 100.867 79.0125C102.872 82.4632 114.67 88.4798 114.67 88.4798C114.67 88.4798 115.378 75.2373 113.372 71.7866C111.367 68.3359 106.943 67.1562 103.492 69.1322" fill="#6D6E71"/>
<path d="M69.9286 194.479C71.9341 197.929 76.3581 199.139 79.8088 197.133C83.2595 195.127 89.2761 183.33 89.2761 183.33C89.2761 183.33 76.0337 182.622 72.583 184.628C69.1322 186.633 67.9525 191.057 69.9286 194.508" fill="#6D6E71"/>
<path d="M103.521 228.071C106.972 230.077 111.396 228.897 113.402 225.417C115.407 221.966 114.699 208.724 114.699 208.724C114.699 208.724 102.873 214.741 100.896 218.191C98.8909 221.642 100.071 226.066 103.551 228.071" fill="#6D6E71"/>
<path d="M228.868 194.479C230.873 191.028 229.694 186.604 226.213 184.598C222.763 182.593 209.52 183.301 209.52 183.301C209.52 183.301 215.537 195.128 218.987 197.104C222.438 199.109 226.862 197.929 228.868 194.449" fill="#76777A"/>
<path d="M195.304 69.1322C191.854 67.1267 187.43 68.3064 185.424 71.7866C183.419 75.2373 184.126 88.4798 184.126 88.4798C184.126 88.4798 195.953 82.4632 197.929 79.0125C199.935 75.5618 198.755 71.1378 195.275 69.1322" fill="#6D6E71"/>
<path d="M69.9286 102.725C67.923 106.176 69.1028 110.6 72.583 112.605C76.0337 114.611 89.2761 113.903 89.2761 113.903C89.2761 113.903 83.2595 102.076 79.8088 100.1C76.3581 98.0946 71.9341 99.2744 69.9286 102.755" fill="#6D6E71"/>
<path d="M101.84 148.587C101.84 137.97 96.4134 128.62 88.1848 123.134C97.8881 125.081 108.329 122.309 115.82 114.788C123.341 107.267 126.113 96.8264 124.167 87.1526C129.652 95.3813 139.002 100.808 149.619 100.808C160.237 100.808 169.586 95.3813 175.072 87.1526C173.125 96.8559 175.898 107.297 183.419 114.817C190.939 122.338 201.38 125.11 211.054 123.164C202.825 128.65 197.398 137.999 197.398 148.617C197.398 159.234 202.825 168.584 211.054 174.069C201.35 172.123 190.91 174.895 183.419 182.416C175.898 189.937 173.125 200.377 175.072 210.051C169.586 201.822 160.237 196.396 149.619 196.396C139.002 196.396 129.652 201.822 124.167 210.051C126.113 200.348 123.341 189.907 115.82 182.416C108.299 174.895 97.8586 172.123 88.1848 174.069C96.4134 168.584 101.84 159.234 101.84 148.617" fill="#D6E599"/>
<path d="M101.84 148.587C101.84 137.97 96.4134 128.62 88.1848 123.134C97.8881 125.081 108.329 122.309 115.82 114.788C123.341 107.267 126.113 96.8264 124.167 87.1526C129.652 95.3813 139.002 100.808 149.619 100.808C160.237 100.808 169.586 95.3813 175.072 87.1526C173.125 96.8559 175.898 107.297 183.419 114.817C190.939 122.338 201.38 125.11 211.054 123.164C202.825 128.65 197.398 137.999 197.398 148.617C197.398 159.234 202.825 168.584 211.054 174.069C201.35 172.123 190.91 174.895 183.419 182.416C175.898 189.937 173.125 200.377 175.072 210.051C169.586 201.822 160.237 196.396 149.619 196.396C139.002 196.396 129.652 201.822 124.167 210.051C126.113 200.348 123.341 189.907 115.82 182.416C108.299 174.895 97.8586 172.123 88.1848 174.069C96.4134 168.584 101.84 159.234 101.84 148.617" stroke="#6BBE4A" stroke-width="0.02" stroke-miterlimit="10"/>
<path d="M194.479 228.071C197.929 226.066 199.139 221.642 197.133 218.191C195.127 214.741 183.33 208.724 183.33 208.724C183.33 208.724 182.622 221.966 184.628 225.417C186.633 228.868 191.057 230.048 194.508 228.071" fill="#6D6E71"/>
</g>
</g>
<defs>
<clipPath id="clip0_2_34">
<rect width="298" height="298" fill="white"/>
</clipPath>
</defs>
</svg>
